<svg xmlns="http://www.w3.org/2000/svg" viewBox="0 0 200 120" role="img" aria-label="Logo de HabiTalca">
  <defs>
    <linearGradient id="bg" x1="0" x2="0" y1="0" y2="1">
      <stop offset="0%" stop-color="#f5f5f5" />
      <stop offset="100%" stop-color="#e5e7eb" />
    </linearGradient>
  </defs>
  <rect x="4" y="4" width="192" height="112" rx="20" fill="#ffffff" />
  <rect x="12" y="12" width="176" height="96" rx="16" fill="url(#bg)" />
  <g fill="#111827">
    <rect x="36" y="32" width="16" height="56" />
    <rect x="36" y="52" width="36" height="16" />
    <rect x="56" y="32" width="16" height="56" />
    <rect x="92" y="32" width="16" height="56" />
    <rect x="84" y="32" width="48" height="16" />
  </g>
  <g>
    <polygon points="128,72 146,60 158,68 140,80" fill="#f59e0b" />
    <polygon points="140,80 158,68 170,76 152,88" fill="#38bdf8" />
    <polygon points="152,88 170,76 182,84 164,96" fill="#9ca3af" />
    <polygon points="164,96 182,84 194,92 176,104" fill="#ef4444" />
  </g>
</svg>
